<svg xmlns="http://www.w3.org/2000/svg" viewBox="0 0 307.68 282.24"><g><g><path class="cls-1" d="M176.4,205.38c-25.16,0-50.33-.2-75.48.06-23.68.24-41-18.16-43.15-39-1.65-15.86-3.86-31.66-5.69-47.51-1.85-16-3.49-32.05-5.3-48.07C45.21,57,43.44,43.14,41.94,29.26c-.26-2.49-1.3-3-3.47-3-10.66.06-21.33,0-32,0-7.14,0-6.44.2-6.46-6.52C0,14.62,0,9.46,0,4.29.07.12.12.06,4.16,0c8,0,16,0,24,0Q44.4,0,60.64,0c4.4,0,4.25.07,4.7,4.22,1.09,9.91,2.34,19.81,3.5,29.71.49,4.13,1,8.26,1.37,12.4.41,4.68.35,4.72,4.9,4.73q21,0,42,0,92.22,0,184.45,0c1.95,0,4.61-.31,5.64.77s.26,3.68.05,5.59c-1.22,11.23-2.54,22.46-3.77,33.69-1.12,10.25-2.15,20.5-3.28,30.75q-1.79,16.35-3.7,32.69c-.67,5.78-1.19,11.59-2.26,17.29a40.74,40.74,0,0,1-39.86,33.45c-26,.17-52,0-78,0ZM278.67,77.61c-1.53-.08-2.83-.2-4.13-.2q-97.47,0-194.94,0c-5.86,0-5.89.13-5.17,5.82q2.92,23,5.7,46c1.38,11.38,2.77,22.76,4,34.16,1,9.42,7.85,16.1,18.25,15.84,17.31-.43,34.65-.12,52-.13,32.66,0,65.31-.09,98,0,9.73,0,14.48-5.63,16-12.7.5-2.26.59-4.61.87-6.92q1.84-15.35,3.68-30.69,1.86-15.84,3.65-31.7C277.27,90.7,277.94,84.3,278.67,77.61Z"/><path class="cls-1" d="M76.93,256.17C77,242.38,89.1,230,102.78,230.24c13.94.23,26.08,10.62,26,26.7A25.41,25.41,0,0,1,103,282.17C86.62,282.07,76.5,268.37,76.93,256.17Z"/><path class="cls-1" d="M230.75,256C230,244,241.23,230,256.92,230.26s25.95,14.54,25.45,26.66c-.58,13.79-12.42,25.65-26.34,25.31C240.83,281.85,229.81,268.22,230.75,256Z"/></g></g></svg>
