<svg xmlns="http://www.w3.org/2000/svg" viewBox="0 0 359.74 587.85"><g><g><path class="cls-1" d="M148.14,98A50.12,50.12,0,1,0,98,148.14,50.12,50.12,0,0,0,148.14,98ZM64.48,98A33.55,33.55,0,1,1,98,131.57,33.59,33.59,0,0,1,64.48,98Z"/><path class="cls-1" d="M350.55,195c-.49,0-1.11.17-1.44-.06-.67-.47-1.51-1.08-1.7-1.78a13.19,13.19,0,0,1-.1-3.39c0-9.42.06-18.84,0-28.26a7.27,7.27,0,0,0-6.81-7.47c-4.48-.38-8.15,2.28-8.85,6.54a24,24,0,0,0-.13,3.89c0,8.93,0,17.86,0,26.8,0,3.66-.08,3.71-3.82,3.72q-16.08,0-32.16,0c-6.82,0-6.82,0-6.81-7.06,0-9.58,0-19.17.07-28.75,0-3.77-1.21-6.68-4.71-8.31-5.58-2.6-11.26,1.26-11.28,7.7,0,10.88,0,21.77.07,32.65,0,3.43.27,3.75-3.74,3.8-6.27.09-9.38,2.91-9.52,9.13-.22,9.58-.14,19.17,0,28.75a41.56,41.56,0,0,0,1.08,8.67c4.83,21,17.82,34.09,38.61,39.38,2.28.57,2.84,1.41,2.81,3.52-.08,7,0,14,0,20.95-.06,13.09-6.69,22.11-19.26,26-13.61,4.25-27.21,8.53-40.89,12.56-23.69,7-40.83,30-40.37,55.28a57.76,57.76,0,0,0,34.89,51.4c8.43,3.55,17.3,4,26.18,4.67,18.75,1.48,32.83,10.61,42.13,26.74,8.65,15,8.78,31.43,5.54,47.77-4.83,24.42-27.85,41.7-52,41.59-45.41-.21-90.81-.16-136.21-.12V505.66H134A11.73,11.73,0,0,0,145.7,494V183.69a98,98,0,1,0-95.35,0V494a11.74,11.74,0,0,0,11.7,11.7H74v70.49a11.73,11.73,0,0,0,11.69,11.7h24.69a11.64,11.64,0,0,0,3.84-.66q72.12,0,144.25.09a61.27,61.27,0,0,0,16.82-2.15c25.63-7.26,42.35-23.63,49.72-49.28,3.37-11.72,3.5-23.73,1.79-35.7-4-27.66-19.25-46.44-45.16-56.69-8.43-3.34-17.32-4-26.23-4.54-20.87-1.16-42.36-21.2-36.15-49.92,3.27-15.11,13-25.12,27.79-29.88,13.57-4.38,27.22-8.5,40.79-12.88,18.86-6.08,30-21.5,30-41.38,0-6.33,0-12.67,0-19,0-4,0-4,3.88-5.05,17.7-4.93,29.76-15.93,35.83-33.34.84-2.43,1.45-4.94,2.16-7.4v-40C357.66,196.63,354.79,194.59,350.55,195Zm-334-97A81.46,81.46,0,1,1,98,179.49,81.55,81.55,0,0,1,16.57,98Zm50.35,93a98.5,98.5,0,0,0,62.21,0V489.09H66.92ZM90.55,571.28V505.93h15v65.35Zm253.57-339.5c-.1,18.12-16,32.19-32.16,32.9-18.28.8-31.92-11.48-35.31-25.45a59.46,59.46,0,0,1-1.31-11.07c-.21-4.7.06-9.42-.09-14.13-.08-2.39.82-3.05,3.11-3,10.4.09,20.79,0,31.19,0,10.23,0,20.46,0,30.69,0,3.79,0,3.85.07,3.88,3.68C344.17,220.41,344.15,226.1,344.12,231.78Z"/></g></g></svg>
