<svg xmlns="http://www.w3.org/2000/svg" viewBox="0 0 476.65 512"><g><g><path class="cls-1" d="M19.29,0c9.13,4,18.23,8,27.39,11.83,16.69,7.06,33.42,14,50.12,21.07,6.49,2.74,9.91,7.47,9.85,14.71-.09,13.66,0,27.33,0,41,0,1.5,0,3,0,4.5.12,3.32.14,3.31,3.68,3.8L162.15,104q25.15,3.47,50.3,7c16.94,2.34,33.88,4.64,50.81,7,15.77,2.21,31.53,4.54,47.31,6.77q25.14,3.54,50.31,7c15.79,2.14,31.6,4.11,47.39,6.28,13.15,1.81,26.28,3.82,39.42,5.7,5.25.76,10.53,1.38,15.79,2.12,8,1.12,13,6.57,13,14.5,0,40.83.55,81.67-.25,122.48-.39,19.92-10.75,35.35-27.62,46a53,53,0,0,1-28.81,8.45c-37.66,0-75.32.06-113,.07-55.32,0-110.65-.1-166,.08-11.53,0-22.54-1.32-32.79-6.89-.25-.14-.63,0-1.22,0-.08,1.07-.25,2.18-.25,3.29,0,10.67-.11,21.33,0,32,.08,7.67,2,14.85,7.15,20.79a29.15,29.15,0,0,0,22.91,10.28H323.09c26.67,0,53.33.11,80,0,28.18-.16,52.41,19.15,57.9,46.88,3.39,17.09-.64,32.78-11.34,46.48a55.1,55.1,0,0,1-35.08,21.13,4.71,4.71,0,0,0-1.28.69h-18c-.27-.19-.51-.5-.8-.55a55.4,55.4,0,0,1-34.59-20.14c-11.6-14.24-15.8-30.53-11.93-48.57,1.2-5.58,3.51-10.92,5.28-16.3H228.76c-.08.44-.18.63-.12.76.37.92.76,1.84,1.17,2.74,4.9,10.69,6.83,21.73,4.8,33.49C231.26,482.85,220.9,497.1,203.5,506c-5.09,2.61-10.79,4-16.21,6h-19a4.14,4.14,0,0,0-1.25-.71c-15.54-2.83-27.75-11-36.73-23.77-9.13-13-12.38-27.54-9.23-43.13,1.3-6.44,3.89-12.62,5.92-19a5,5,0,0,0-.82-.22,57.93,57.93,0,0,1-35.72-21.06c-9.14-11.21-13-24.19-13.15-38.4-.14-20.66,0-41.33,0-62q0-121.23,0-242.46c0-5.08.53-4.48-4.27-6.49Q42.43,42,11.9,29a32.91,32.91,0,0,1-5.33-2.7A14.1,14.1,0,0,1,3.91,4.62C5.68,2.74,8.14,1.52,10.29,0ZM277,308.06h20.5q59.49,0,119,0a35.75,35.75,0,0,0,8.91-.74,28.41,28.41,0,0,0,21.8-28.13q.1-50.74,0-101.49c0-5-.07-5-4.87-5.51-6.1-.71-12.19-1.55-18.27-2.38-8.55-1.18-17.09-2.41-25.64-3.6s-17.1-2.34-25.65-3.52c-8.22-1.15-16.43-2.34-24.65-3.46C339.55,158,331,157,322.43,155.79c-11-1.5-22-3.08-33-4.63-8.71-1.23-17.42-2.48-26.13-3.69-8.06-1.12-16.12-2.19-24.18-3.29q-12.83-1.76-25.66-3.51c-8.38-1.16-16.76-2.35-25.15-3.49s-16.79-2.21-25.18-3.35q-13.32-1.82-26.62-3.7c-8.38-1.18-16.78-2.3-25.14-3.58-4.65-.72-4.77-.74-4.82,4,0,.5,0,1,0,1.5q0,33.74,0,67.49c0,26,0,52,0,78,0,14.85,8.88,26.64,22.5,29.82,3.5.82,7.27.71,10.92.71Q208.47,308.09,277,308.06ZM177.82,482.89c14.79.63,28.47-12.41,28.42-28.51A28.88,28.88,0,0,0,178,426.06c-15.67-.12-28.85,13.29-28.7,28.91C149.42,469.4,162.17,483.54,177.82,482.89Zm226.48,0A27.91,27.91,0,0,0,433,454.61c.09-17.38-14.32-28.31-28-28.56-15.2-.28-28.74,12.66-28.88,28.18C375.87,471.24,390.83,483.61,404.3,482.9Z"/></g></g></svg>
