<svg xmlns="http://www.w3.org/2000/svg" viewBox="0 0 488.25 488.53"><g><g><path d="M155.68,431h6.2c13.21,0,26.42.14,39.62-.07,4.83-.08,8,1.77,10.33,5.85,5.1,8.78,10.39,17.45,15.64,26.14,7.95,13.15-3.48,25.63-14.54,25.58-67.74-.31-135.48-.16-203.22-.12-3.88,0-7-1.06-8.8-4.72s-.8-6.86,1.63-9.87C10.83,463.55,19,453.16,27.38,443a31.34,31.34,0,0,1,26.25-12c6.43.17,12.87-.09,19.3.09,2.61.07,3.95-.92,5-3.19,2.89-6.11,6.11-12.08,9-18.2,2.69-5.72,6.69-9.8,13-11,2.16-.42,2.55-1.86,3.19-3.42q8.28-20.44,16.6-40.89,14.85-36.66,29.65-73.35c.51-1.25.89-2.57,1.51-3.77.7-1.37.08-2-.91-2.94a29.76,29.76,0,0,1-5.44-5.91,14.83,14.83,0,0,1-.86-14.14c3.72-8.52,7.4-17.08,11.48-25.43,2.89-5.91,7.88-9.29,14.64-9.11,3.16.08,4.79-.9,6-3.92Q205.26,142.39,234.91,69c3.73-9.26,7.29-18.58,11.27-27.73C256.28,18,273.84,3.61,299,.59c42.18-5,74.52,23,82.12,58.2A71.45,71.45,0,0,1,382.5,73.4c.12,27.61.06,55.21.06,82.82,0,1,.08,2,0,3-.21,2.08.33,3.28,2.62,4.05,4,1.33,5.54,4.51,5.56,8.72,0,7,.14,7,7.39,7,10.33,0,20.67.28,31-.1,6.48-.24,10.87,3.67,10.45,10.55-.39,6.41,0,12.87-.12,19.3-.05,2.46.7,3.42,3.28,4,23.49,5,41.57,23.4,45.28,48.83a49.37,49.37,0,0,1,.25,7.1q0,93.22,0,186.46c0,16.38-10.4,29.23-26.38,32.73a28.41,28.41,0,0,1-6.05.49c-35.91,0-71.81.22-107.71-.06-20.88-.16-38.28-8.64-52.47-23.9a70.1,70.1,0,0,1-18.81-41.3c-2.26-22,4-41.53,19.22-57.85a108.15,108.15,0,0,1,10.56-9.48A5.43,5.43,0,0,0,309,351.1q-.12-19.31,0-38.61c0-2.11-.67-2.8-2.85-3.07-14.34-1.76-24-9.58-28.4-23.32-6.06-19.07,7.38-39.48,27.26-41.93,3.92-.49,4.07-.49,3.93-4.45-.2-5.86.41-11.46,3.67-16.56a22.49,22.49,0,0,1,9.62-8.77c2.38-1.08,3.07-2.59,3.05-5.09-.11-11.69.08-23.37-.11-35.06-.09-5.41.93-9.75,6.81-11.5.58-.17,1.11-1.1,1.31-1.79a9.6,9.6,0,0,0,.07-2.52c0-28.12.05-56.23,0-84.34,0-9.13-3.8-16.41-11.73-21.16-12.95-7.77-29-1.1-33.94,11.34-4.56,11.47-9.22,22.89-13.83,34.34q-24.09,59.73-48.25,119.45c-1.08,2.68-1,4.24,1.28,6.39,5.38,5,6.68,11.3,3.82,18.08q-5.31,12.61-11.21,25c-2.64,5.55-7.16,9.25-13.46,9.31-3.65,0-4.94,1.59-6.12,4.55-7.7,19.32-15.53,38.58-23.31,57.86q-11.3,28-22.59,56c-.45,1.1-.76,2.26-1.3,3.3-.77,1.46-.44,2.38.83,3.44,6.71,5.6,7.94,12.58,5,20.58C157.56,425.06,156.8,427.64,155.68,431Zm240.8,40.65c10.9,0,20.88,0,30.86,0,3.46,0,3.52-.09,3.54-3.74,0-8.8.32-17.62-.08-26.4-.33-7.11,4.23-10.86,10.41-10.59,9,.4,17.94.13,26.92.08,3.3,0,3.38-.09,3.39-3.37.05-9.31-.14-18.63.1-27.93a9.18,9.18,0,0,0-3.72-8.22c-9.09-7.32-18-14.84-27-22.34-14.39-12.07-29-23.88-43-36.36-15.7-14-23.57-31.87-23.87-52.92-.18-13.37,0-26.75,0-40.12,0-3.05-.06-6.1,0-9.14,0-1.75-.7-2.38-2.41-2.37-12.53,0-25.06-.09-37.58.06-5,.06-8.08,3.41-8.33,8.41-.12,2.37.14,4.76-.07,7.11-.28,3.17.8,5.13,3.49,7.12a32.1,32.1,0,0,1,11.51,35.3c-2.13,6.8-5.87,12.59-11.85,16.62a6.52,6.52,0,0,0-3.17,6.29c.2,6.09.06,12.19.06,18.29v18.07c16.49-5.19,32.58-5.54,48.6.13,16.24,5.75,28.78,16,38,30.6a70.42,70.42,0,0,1,10.81,45C421.2,441.32,412.25,458,396.48,471.68Zm75.06-99.2v-4.29q0-49.51,0-99a55.41,55.41,0,0,0-.69-6.53c-2.11-17.49-17.24-33.93-39.73-34.36-12.18-.23-24.37-.07-36.56,0-3.76,0-3.82.07-3.82,4,0,15.91-.11,31.82.06,47.72a59.17,59.17,0,0,0,1.53,11.52c2.88,13.49,10.5,24,20.94,32.67q24.78,20.6,49.52,41.25C465.44,367.63,468.2,369.79,471.54,372.48ZM349.79,471.67c31.52-.45,56.52-25,56.6-56.52a56.57,56.57,0,1,0-113.14-.08C293.31,446.77,318.34,471.14,349.79,471.67Zm-323.89,0H164.49c2.2,0,4.41-.14,6.6,0s3.69-.67,4.85-2.71c3.41-6,7.05-11.93,10.57-17.9.55-.93.94-2,1.61-3.37-12.2,0-23.86,0-35.52,0-1.78,0-2.79.55-3.32,2.31-.82,2.75-1.75,5.47-2.79,8.14a8.45,8.45,0,0,1-8.58,5.84q-32,0-64,0c-.34,0-.68,0-1,0a8.3,8.3,0,0,1-7.34-11.31c.54-1.55,1.32-3,2.15-4.91-5.44,0-10.51-.17-15.56.05A14.74,14.74,0,0,0,41,453C36.09,459,31.26,465,25.9,471.68ZM192.57,219.27a8.81,8.81,0,0,0,1.48.35q4,0,8.12,0c5.19,0,4.41.22,6.19-4.18q21.12-52.19,42.19-104.38c2-5,4-10.07,6.09-15,.95-2.25.71-3.75-1.53-5-2.75-1.6-5.33-3.48-8.51-5.59C228.47,130.34,210.54,174.77,192.57,219.27ZM183.2,277c-3.52,0-6.54,0-9.56,0-4.51.05-4.08-.86-6.15,4.25q-22.94,56.66-45.78,113.34c-.46,1.14-.73,2.36-1.09,3.56a9.15,9.15,0,0,0,1.39.3c2.54,0,5.08,0,7.62,0,4.74,0,4.77,0,6.54-4.39Q159,337.71,181.83,281.29C182.32,280.09,182.63,278.82,183.2,277ZM87,447.28c14.54,0,28.2-.06,41.87.06,2.68,0,3.79-1,4.57-3.51,2.6-8.36,5.5-16.63,8.24-24.95a30,30,0,0,0,.7-3.66c-12.75,0-25,0-37.35,0a3.15,3.15,0,0,0-3.06,2.13C97.11,427.14,92.19,436.92,87,447.28Zm127.85-210.9c-14.68,0-28.51,0-42.33,0-2.16,0-2.87,1.23-3.59,2.86-2.57,5.87-5.21,11.7-7.79,17.56-.44,1-.69,2.08-1.17,3.55,14.29,0,28.11,0,41.94,0a3.32,3.32,0,0,0,3.39-2.39C208.34,251,211.43,244.12,214.86,236.38Zm127.05-40.89c0,4.4.1,8.81,0,13.2-.07,2.26.84,2.9,3,2.88q13.22-.12,26.42,0c1.88,0,2.75-.54,2.74-2.58q-.11-13.46,0-26.92c0-2-.8-2.63-2.71-2.62-8.81.06-17.61.12-26.42,0-2.67,0-3.06,1.16-3,3.37C342,187,341.91,191.25,341.91,195.49Zm-32.83,97.33a16,16,0,1,0-15.93-16.37C292.91,285.06,300.38,292.74,309.08,292.82Zm138.51,166.8c0,1.52,0,3,0,4.56.24,8.82-1.79,7.54,7.9,7.42,9-.11,15.54-6.78,16-15.73.1-1.85-.06-3.72,0-5.57.12-2-.82-2.62-2.71-2.59-5.74.07-11.49,0-17.23,0-4,0-4,.06-4,4.28C447.58,454.55,447.59,457.09,447.59,459.62ZM406.35,211.54c4.58,0,9.15-.06,13.72,0,1.91,0,2.77-.59,2.72-2.6-.1-3.55-.11-7.11,0-10.67.05-2-.85-2.59-2.74-2.58q-13.46.07-26.92,0c-1.68,0-2.48.56-2.44,2.35.07,3.72.08,7.45,0,11.17,0,1.82.82,2.34,2.47,2.32C397.55,211.5,402,211.53,406.35,211.54ZM350,89.59v.51c0,7.64,0,7.67,7.8,7.61,2.5,0,5.88.63,7.24-.7s.74-4.71.73-7.2.58-5.9-.75-7.2-4.75-.66-7.25-.68C350.05,81.88,350.05,81.92,350,89.59Zm8.15,24.84h-.51c-7.65,0-7.68,0-7.62,7.79,0,2.5-.63,5.89.7,7.24s4.71.75,7.2.75,5.9.57,7.19-.76.67-4.75.69-7.25C365.89,114.45,365.86,114.45,358.19,114.43Zm0,32.52h-.51c-7.64,0-7.68,0-7.62,7.8,0,2.5-.62,5.88.7,7.24s4.72.74,7.21.73,5.9.58,7.19-.75.66-4.75.67-7.25C365.88,147,365.84,147,358.19,147ZM330.93,21.65c-.94,3.75-1.77,7-2.59,10.27-1.12,4.51,0,6.65,4.32,7.82a10,10,0,0,0,4.48-.2c3.47-.76,6.89-1.71,10.31-2.64,1-.28,2-.73,3.43-1.25A52.4,52.4,0,0,0,330.93,21.65Zm-32.41,12c3.75-.33,7.08-.69,10.42-.89,1.5-.09,1.93-.87,2.24-2.18.84-3.6,1.84-7.16,2.75-10.75.49-1.94-.31-3-2.3-2.83-4.2.26-8.4.46-12.57.91-3,.32-3.4.95-2.9,4C296.77,25.69,297.67,29.45,298.52,33.6Zm-19.09-8A49.1,49.1,0,0,0,267.22,38c-1,1.45-.62,2.43.78,3.34,3.25,2.1,6.46,4.26,9.76,6.46A31.22,31.22,0,0,0,281.34,44a5.68,5.68,0,0,0,1.1-3.62C281.67,35.69,280.59,31.1,279.43,25.59ZM346,54.9c1.06,3,1.91,5.74,3,8.37.31.76,1.22,1.81,1.87,1.82,4.62.08,9.28.45,14.42-.26C364.08,60.76,363,57.24,362,53.7c-.49-1.71-1.46-2.62-3.34-2.13Zm-87.59.48c-1.71,5-3.21,9.46-4.7,13.88,3.14,2.24,6.28,4.48,9.44,6.69.23.17.62.11,1.46.23,1.5-3.74,3.1-7.6,4.6-11.49.62-1.6-.44-2.48-1.65-3.26C264.74,59.59,261.94,57.71,258.42,55.38ZM212.83,471.45c-3.09-5.31-5.85-10.19-9.42-15.4-3.3,5.43-6.35,10.08-9.11,15.4Z"/><path class="cls-1" d="M317.09,414.78c-.38-17.6,15-32.78,33.06-32.63,17.18.15,32.73,14.88,32.5,33.31-.22,17.56-15.3,32.42-32.91,32.37C331.8,447.78,316.47,432.43,317.09,414.78Zm48.75.08A16,16,0,1,0,349.7,431,16.38,16.38,0,0,0,365.84,414.86Z"/></g></g></svg>
