<svg xmlns="http://www.w3.org/2000/svg" viewBox="0 0 409 679.38" fill="#b42079"><path class="cls-1" d="M114.84 438.32a52.62 52.62 0 0052.63-52.62V92.26a52.63 52.63 0 00-52.63-52.63 52.64 52.64 0 00-52.63 52.63V385.7a52.63 52.63 0 0052.63 52.62zM78.78 92.26a36.06 36.06 0 0172.12 0V385.7a36.06 36.06 0 11-72.12 0zm173.86 34.4c12.74 3.07 23.38 12.52 34.87 18.42a81.36 81.36 0 0036.18 9c17-.28 29.85-7.86 43.66-16.92 6.11-4 12.27-7.85 19.36-9.88 5.67-1.63 14.07-.12 18.91-3.51a7.56 7.56 0 00.25-12.21c-4.17-3.16-12.35-1.45-17.07-.57-13.53 2.52-24.45 9.94-35.7 17.37s-23.77 12-37.53 9.62c-13.52-2.35-25-10.66-36.75-17.22-5.61-3.13-11.32-6.19-17.51-8-5.11-1.5-13.4-3.8-18.67-1.84-4.2 1.55-5.77 6.71-3.88 10.65 2.51 5.21 9.16 3.95 13.88 5.09zm139.3 69.9c-14.08 2.21-24.95 8.71-36.66 16.38s-22.65 12.84-36.85 11.35c-13.69-1.43-24.88-8.71-36.43-15.58-10.84-6.44-23.94-13.59-37.07-12-4.9.59-7.82 4.28-6.71 9.32 1.37 6.25 7.45 5.36 12.43 6.27 13.1 2.38 24.45 12.5 36.1 18.47 11.39 5.84 23.8 9.3 36.65 9.16 15.88.62 28.92-6.74 41.74-15.17 6.19-4.07 12.37-8.43 19.43-10.84a43.55 43.55 0 0111-2c3-.23 6.44.09 9.2-1.4a7.72 7.72 0 001.94-12.14c-3.65-3.82-10.17-2.55-14.77-1.82zm13.48 172.84c-4.47-2.81-13.27-.81-18.09.14-12.65 2.51-22.88 9.54-33.46 16.47-11.08 7.26-22.22 11.81-35.7 10.4S293 387.36 281.4 380.8c-10.48-5.93-24.11-14.56-36.89-12.21a7.65 7.65 0 00-6.27 9.78c1.48 5.65 6.82 5.28 11.52 5.95 13.26 1.89 24.73 12 36.26 18.2a82.15 82.15 0 0036.84 9.78c17.07-.59 29.86-7.43 43.93-16.4 5.76-3.68 11.71-7.85 18.25-10a54.22 54.22 0 0111.14-2.18c3.16-.34 7 .06 9.74-1.91a7.63 7.63 0 00-.5-12.41zm-11.31-87.05c-13.45 1.6-24.46 7.22-35.63 14.52-11.38 7.43-22.21 14.32-36.35 13.87-27.72-.9-46.49-26.72-74.08-28.19-5.33 0-10.34 2-10 8.2.36 7.05 6.6 6.77 11.95 7.59 14.91 2.29 28 13.81 41.2 20.52a70.15 70.15 0 0038.85 7c13.5-1.41 24.19-7.79 35.25-15.15 5.67-3.78 11.41-7.71 17.82-10.15 6.08-2.31 12.23-2 18.48-3.2 5.15-1 9.43-5.94 6.43-11.25-2.86-5.05-9.03-4.34-13.92-3.76zM101.85 648.68h26a8.29 8.29 0 000-16.57h-26a8.29 8.29 0 100 16.57z"/><path class="cls-1" d="M221.4 662.81h-34.11V444.73a93.06 93.06 0 0021.11-59V93.56C208.4 42.1 166.3 0 114.84 0S21.28 42.1 21.28 93.56V385.7a93.06 93.06 0 0021.12 59v218.11H8.28a8.29 8.29 0 000 16.57H221.4a8.29 8.29 0 000-16.57zM37.85 385.7V93.56a77 77 0 01154 0V385.7a77 77 0 01-154 0zm132.87 277.11H59v-97.3h111.72zm0-113.87H59v-88.32a93 93 0 0055.88 18.64 93 93 0 0055.88-18.64z"/></svg>