<svg xmlns="http://www.w3.org/2000/svg" viewBox="0 0 309.39 606.02" fill="#b42079"><path class="cls-1" d="M300.19 213.19c-.48.05-1.1.17-1.43-.06-.68-.47-1.51-1.08-1.71-1.78A13.19 13.19 0 01297 208c0-9.42.05-18.84 0-28.26a7.27 7.27 0 00-6.82-7.47c-4.47-.38-8.14 2.28-8.85 6.54a24 24 0 00-.12 3.89v26.8c0 3.66-.08 3.71-3.82 3.72h-32.16c-6.82 0-6.83 0-6.82-7.06 0-9.58 0-19.17.08-28.75 0-3.77-1.21-6.68-4.72-8.31-5.57-2.6-11.26 1.26-11.27 7.7 0 10.88 0 21.77.07 32.65 0 3.43.26 3.75-3.75 3.8-6.26.09-9.37 2.91-9.51 9.13-.23 9.58-.14 19.17 0 28.75a41.57 41.57 0 001.09 8.67c4.82 21 17.82 34.09 38.61 39.38 2.27.57 2.84 1.41 2.81 3.52-.09 7 0 14 0 20.95-.06 13.09-6.69 22.11-19.26 26-13.61 4.24-27.22 8.53-40.89 12.56-23.69 7-40.83 30-40.37 55.28a57.77 57.77 0 0034.7 51.42c8.44 3.55 17.3 4 26.19 4.67 18.74 1.48 32.83 10.61 42.13 26.74 8.65 15 8.77 31.43 5.54 47.77-4.84 24.42-27.85 41.7-52 41.59-45.4-.21-90.8-.16-136.21-.12v-65.73h12a11.74 11.74 0 0011.7-11.7V235.69h-2.3a19.26 19.26 0 01-6.29-14.24l-.62-24.58L82.29 46l-.07-2.79a11.75 11.75 0 00-11.63-10.42h-8.48V15.66a15.66 15.66 0 10-31.32 0v17.13h-8.47A11.75 11.75 0 0010.68 43.3v.06a10.37 10.37 0 00-.06 1.12v.95l-4 154.05-.58 22.14A19.21 19.21 0 010 235.69v276.44a11.73 11.73 0 0011.7 11.7h11.93v70.49A11.73 11.73 0 0035.33 606H60a11.58 11.58 0 003.83-.66q72.13 0 144.26.09a61.32 61.32 0 0016.82-2.15c25.62-7.26 42.35-23.64 49.72-49.28 3.37-11.72 3.5-23.73 1.79-35.7-4-27.66-19.26-46.44-45.16-56.69-8.43-3.34-17.32-4-26.24-4.54-20.86-1.16-42.35-21.2-36.14-49.92 3.27-15.11 13-25.12 27.79-29.88 13.57-4.38 27.22-8.5 40.79-12.88 18.86-6.08 30-21.5 30-41.38v-19c0-4 0-4 3.88-5 17.69-4.93 29.76-15.93 35.83-33.34.84-2.43 1.44-4.94 2.16-7.4v-40c-2.02-3.47-4.89-5.51-9.14-5.08zM16.57 252.26h62.21v45.61H16.57zm53.62-30.81a35.49 35.49 0 003 14.24h-8.68l4.93-43.1zm-2.57-98.78l-12.92 113H37L58.31 49.36h7.41zm-27.08-107a5.91 5.91 0 1111.82 0v17.12H40.54zm-17.9 206l4.55-172.31H48.5L27.2 235.69h-7.47a35.46 35.46 0 002.91-14.05zm-6.07 92.8h62.21v192.79H16.57zm23.63 275V524.1h14.95v65.35zM293.76 250c-.1 18.12-16 32.19-32.16 32.9-18.27.8-31.92-11.48-35.3-25.45a58.63 58.63 0 01-1.3-11.12c-.22-4.7 0-9.42-.09-14.13-.08-2.39.82-3 3.11-3 10.39.09 20.79 0 31.18 0h30.7c3.79 0 3.85.07 3.88 3.68.04 5.7.01 11.39-.02 17.12z"/><path class="cls-1" d="M82.29 44.49a10.91 10.91 0 00-.07-1.29l.07 2.8zM47.47 335.23A17.55 17.55 0 1065 352.77a17.56 17.56 0 00-17.53-17.54zm0 25.34a7.8 7.8 0 117.8-7.8 7.8 7.8 0 01-7.8 7.8z"/></svg>