<svg xmlns="http://www.w3.org/2000/svg" viewBox="0 0 480.41 472.63"><defs><style>.cls-1{fill:#b32179;}</style></defs><title>Asset 9</title><g id="Layer_2" data-name="Layer 2"><g id="Layer_1-2" data-name="Layer 1"><path class="cls-1" d="M112.61,182.37c-.48,3.71-.71,6.7-1.26,9.63-1.32,7,.86,13.5,2.3,20.11q8.34,38.43,16.81,76.83,8.65,39.38,17.36,78.75,9.33,42.54,18.6,85.1a80.58,80.58,0,0,1,2,10.25c.52,6.15-2.58,9.34-8.76,9.39-7.5.07-15,0-22.49,0-5.66,0-8.18-1.82-9.82-7.27-2.1-7-4.06-14-6.08-21.05q-13.75-47.88-27.5-95.76-4.87-17-9.8-34c-.37-1.26-.86-2.5-1.54-4.49a28.87,28.87,0,0,0-1.2,2.9q-9.92,37.31-19.78,74.61-10.05,38-20.07,76.08a21,21,0,0,1-1.58,4.71A7.41,7.41,0,0,1,33,472.45c-8.5,0-17,.09-25.5-.06A7.32,7.32,0,0,1,0,464.68,75.37,75.37,0,0,1,1.25,453.8q5.9-34.33,11.91-68.66c3.18-18.14,6.47-36.26,9.61-54.4,3.18-18.32,6.19-36.65,9.35-55,2.46-14.22,5.12-28.41,7.54-42.64,2.59-15.21,5-30.45,7.46-45.69q3-18.69,5.72-37.4,2.76-19,5.26-38C59.59,100.62,64,91,74.2,84.72c11.15-6.82,24.29-6.33,34.05,1.58a28.6,28.6,0,0,1,5.83,6.75c10,15.52,19.91,31.14,29.86,46.71,3.58,5.61,7.38,11.1,10.74,16.84,1.56,2.67,3.36,3.52,6.37,3.51,23.66-.12,47.33-.09,71-.06,11.71,0,20.85,7,23.77,18.28a25.94,25.94,0,0,1,.57,6.42c0,27.17,0,54.33,0,81.5,0,6.59-.84,5.76,5.91,5.78q34,.06,68,0a23.14,23.14,0,0,1,2.5,0c2.32.26,3.32-.56,3.22-3.05-.17-4-.08-8,0-12,.07-6,2.84-8.94,8.81-8.94q39.24-.06,78.49,0c6.35,0,9.09,2.81,9.1,9.18q0,32,0,64c0,1.33.1,2.67,0,4-.2,2.2.79,3,2.9,2.83a49,49,0,0,1,5,0c5,.18,8,3.12,8.09,8.17.1,8.5,0,17,0,25.5q0,24.5,0,49c0,1,.07,2,0,3-.11,1.73.69,2.35,2.37,2.33,5.5,0,11,0,16.5,0,3.5,0,7,.06,10.5,0,1.92,0,2.65.84,2.63,2.7-.06,3.67-.05,7.34,0,11,0,1.86-.7,2.8-2.63,2.71-1-.05-2,0-3,0H251.3a42.15,42.15,0,0,1-4.5-.07,7.74,7.74,0,0,1-6.76-6.92c-.12-1.32,0-2.67,0-4q0-107.23,0-214.48c0-5.75,1.46-5.88-6.1-5.45-8.79.51-17.58,1.23-26.36,1.93-10.93.88-21.86,1.88-32.8,2.72-6.79.52-13.61.82-20.42,1.25-5.31.33-10.62.62-15.92,1.07-4.23.35-7.25-1.15-9.75-4.68C123.63,196.77,118.3,190,112.61,182.37Zm143.8,169.72q0,30,0,60c0,3.88.06,3.95,3.73,3.95q36,0,72,0c3.73,0,3.74-.07,3.84-3.34,0-.84,0-1.67,0-2.5V293.69c0-.84-.05-1.67,0-2.5.11-1.77-.35-2.79-2.46-2.77q-13.25.12-26.5,0c-2.39,0-2.66,1.2-2.64,3.1.05,5.67,0,11.33,0,17s0,11.33,0,17c0,2.12-.77,3-2.92,3-3.67-.1-7.34-.06-11,0-1.6,0-2.53-.57-2.49-2.31,0-1.33,0-2.67,0-4,0-10,0-20,0-30,0-3.58-.07-3.65-3.5-3.67q-12-.06-24,0c-4,0-4.05.06-4.06,4.12Q256.39,322.34,256.41,352.09Zm135.68,64c12,0,24,0,36,0,3.83,0,3.89-.07,3.9-3.79,0-9.16,0-18.33,0-27.49q0-18.25,0-36.5c0-3.73-.06-3.78-3.88-3.79q-11.75,0-23.5,0c-4.11,0-4.15,0-4.18,4,0,5.66-.06,11.33,0,17,0,2.06-.65,3.07-2.86,3-3.5-.11-7-.14-10.5,0-2.46.09-3.15-1-3.11-3.28.1-5.5.06-11,0-16.5,0-4.17-.06-4.22-4-4.24q-12,0-24,0c-3.53,0-3.61.08-3.61,3.56q0,32.25,0,64.49c0,3.43.1,3.5,3.67,3.51C368.09,416.06,380.09,416,392.09,416ZM18.57,456h3c4.12,0,4.14,0,5.24-4.11q3.09-11.54,6.14-23.1,24.78-94.11,49.57-188.24C85.29,230,88.06,219.48,91,208.45c-9,0-17.65,0-26.29,0-3.78,0-3.72.1-4.33,3.78Q57.22,230.89,54,249.53c-2.17,12.58-4.45,25.15-6.6,37.74-2.49,14.55-4.82,29.13-7.33,43.68-3.16,18.31-6.48,36.58-9.63,54.89C26.47,409.05,22.59,432.28,18.57,456Zm365.2-128c9.48,0,19,0,28.45,0,3.7,0,3.76-.07,3.77-3.91q0-28,0-55.91c0-.5,0-1,0-1.5.14-1.79-.82-2.28-2.43-2.27-6.16,0-12.31.09-18.47,0-2.33-.05-2.78,1.07-2.7,3,.09,2.32,0,4.66,0,7,0,9,0,18,0,26.95,0,2-.54,3.13-2.8,3.06-3.65-.09-7.32,0-11,0-1.5,0-2.63-.36-2.61-2.17,0-1.17,0-2.33,0-3.49,0-10.32,0-20.64,0-31,0-3.26-.09-3.33-3.3-3.35q-8.49-.09-17,0c-3.19,0-3.28.09-3.28,3.37q0,28.46,0,56.92c0,3.17.1,3.25,3.39,3.26C365.13,328.06,374.45,328,383.77,328ZM239.94,183.92c-2.28-6.1-4.17-7.45-10.25-7.45-25.33,0-50.65-.09-76,.06-4.36,0-7.26-1.53-9.49-5.1-3.79-6.08-7.7-12.07-11.57-18.1Q116,127.5,99.44,101.66a9.38,9.38,0,0,0-5.69-4.47c-5.11-1.36-11.33.72-15.08,5.33-2.46,3-2.49,3.49,0,6.78q19.83,26.64,39.67,53.28,10,13.41,20.06,26.78c.86,1.16,1.5,2.6,3.42,2.45,8.79-.68,17.58-1.23,26.36-1.92,10.93-.87,21.85-1.91,32.79-2.71,11.1-.83,22.23-1.43,33.34-2.2A51.75,51.75,0,0,0,239.94,183.92ZM101.66,236.35a8.56,8.56,0,0,0-1.13,1.68c-3.16,12-6.34,24.07-9.37,36.15a11.05,11.05,0,0,0,0,5.24c1.71,6.59,3.63,13.12,5.54,19.66q22,75.54,44.12,151.07c2.05,7,.69,5.85,8,5.79.23,0,.45-.36.8-.66C133.69,382.52,117.73,309.7,101.66,236.35ZM63.61,192H87.78c6.93,0,6.82,0,7.28-7.22.37-5.79.8-11.6,1.67-17.33a11,11,0,0,0-2.33-9.21c-6.13-7.87-12-15.92-18-23.89-1.14-1.51-2.37-3-3.91-4.87C69.47,150.64,66.57,171.11,63.61,192Z"/><path class="cls-1" d="M118,16.46c3.63,8.22,2.61,16.13,2.18,23.84-.7,12.44-13.36,23.47-25.85,24.23-15.76,1-27.26-10-29.62-21.51-1-4.81-.51-9.92-.76-14.88a25.53,25.53,0,0,1,5.87-17.57C75.18,3.84,81.94-.08,90.83,0c13.81.12,27.62,0,41.44.05,4,0,4.07.09,4.13,4.18,0,2.83.06,5.66,0,8.49-.08,3.6-.11,3.67-3.58,3.72C128.18,16.51,123.53,16.46,118,16.46ZM103.94,32.23h0a37,37,0,0,0,0-4.47c-.78-6.38-5.46-11-11.34-11.25A11.67,11.67,0,0,0,80.8,26.59a36.68,36.68,0,0,0,0,11.36c1,6.1,6.36,10.34,11.8,10,5.89-.32,10.59-5,11.33-11.3A39.19,39.19,0,0,0,103.94,32.23Z"/><path class="cls-1" d="M304.4,456.07c.83,8.76-8,16.59-16.27,16.54-9-.05-16.26-8.66-16.31-16.19-.07-8.76,8.2-16.59,16.46-16.56C296.2,439.89,305.08,447.49,304.4,456.07Z"/><path class="cls-1" d="M432.24,440c7.79-.82,16.42,7.24,16.34,16.5-.07,7.53-7.59,16.13-16.42,16.09-7.78,0-16.42-7.41-16.34-16.68C415.88,448.44,423.41,439.23,432.24,440Z"/><path class="cls-1" d="M320.74,359.89l-1.11,8.19c-2.63.12-5.26.37-7.9.35-8.89-.1-7.63,1.27-7.73-7.53,0-2.16.05-4.32,0-6.48,0-1.7.79-2.38,2.43-2.36,3.82,0,7.65,0,11.47,0,2,0,2.55,1.06,2.5,2.82s0,3.32,0,5Z"/><path class="cls-1" d="M312.2,384.07c8.21,0,8.22,0,8.2,8.05,0,2,0,4,0,6,0,1.72-.84,2.34-2.46,2.32q-5.73,0-11.46,0c-1.63,0-2.46-.64-2.44-2.35,0-4,0-8,0-12,0-1.45.8-2.07,2.19-2.06Z"/><path class="cls-1" d="M368,391c.13-8.16-1.24-6.81,7.53-6.94,2.16,0,4.32,0,6.48,0,1.69,0,2.39.75,2.37,2.41,0,3.82-.05,7.64,0,11.47,0,2-1,2.54-2.8,2.51-3.66,0-7.31-.06-11,0-1.91,0-2.7-.8-2.64-2.68S368,393.79,368,391Z"/></g></g></svg>