<svg xmlns="http://www.w3.org/2000/svg" viewBox="0 0 480.63 376.48"><defs><style>.cls-1{fill:#b32179;}</style></defs><title>Asset 8</title><g id="Layer_2" data-name="Layer 2"><g id="Layer_1-2" data-name="Layer 1"><path class="cls-1" d="M292.28,232.86l29.39,9.24L464.23,287a23.07,23.07,0,0,1,4.18,1.58c4.67,2.56,6.07,8.95,2.45,12.85-5.56,6-11.43,11.67-17.31,17.33-2.73,2.63-6.31,2-9.52,1.29-14.76-3.16-29.49-6.49-44.23-9.78q-40.08-8.94-80.15-17.91-38.38-8.55-76.77-17.09c-3.54-.79-3.61-.77-5.17,2.48Q223.33,307.68,209,337.61c-2.87,6-4.69,7.32-11.23,6.73-5.28-.47-10.51-1.49-15.75-2.32q-17.7-2.79-35.39-5.63c-11.8-1.89-23.59-3.81-35.38-5.67-11.48-1.81-23-3.54-34.44-5.34-9.51-1.5-19-2.85-28.49-4.63-7.16-1.35-9.46-5.52-7.27-12.32q3.5-10.92,7.2-21.78c1.71-5,4-6.8,9.25-6.56,8.8.41,17.58,1.12,26.37,1.73,5.31.37,10.61.84,15.92,1.18,12.12.76,24.24,1.4,36.35,2.22,11.44.77,22.86,1.72,34.66,2.62,1.29-3.1,2.65-6.29,3.95-9.49q9.76-24,19.51-48.06c.67-1.64,2-3.39-1-4.33-.42-.13-.72-1.75-.51-2.53.91-3.37,1.91-6.72,3.08-10a179.82,179.82,0,0,0,8.34-35.3c1.52-10.85,3.26-21.66,4.88-32.49,0-.28-.18-.61-.46-1.47-1.58,1-3.07,1.91-4.57,2.81-15.69,9.42-31.07,19.42-47.14,28.14-28,15.22-57.85,26-88.92,33.29a437.34,437.34,0,0,1-45.6,7.81,38,38,0,0,1-6.49.2A8.16,8.16,0,0,1,9,204.47a28,28,0,0,1,2.81-4.12q7.94-10.59,15.91-21.16c.49-.66.9-1.38,1.46-2.25-1.2-1.26-2.3-2.47-3.45-3.62-7.54-7.54-15.14-15-22.63-22.62C-1,146.61-1,141.31,3,138a8.49,8.49,0,0,1,4.44-1.87,53.92,53.92,0,0,1,9,.2c4.63.42,9.24,1,13.85,1.65,2.32.3,3.61-.37,4.32-2.86C36,130,37.94,125.05,39.51,120a17.4,17.4,0,0,0,.65-4.88c.07-6.17,0-12.34.05-18.5.06-5.83,3.31-9.2,9.11-8.53,6.4.75,12.73,2.27,19.07,3.55,16.75,3.36,33.47,7,50.52,8.57,12.07,1.14,24.16,2.61,36.26,2.88,29.14.65,58.3,1.08,87.44.81,16.09-.14,28.73,13.86,28,28.19-.38,7.13-.92,14.28-.88,21.41,0,6.8.7,13.6,1.19,20.39a72.55,72.55,0,0,0,1.31,9.32V115.24c0-1.17,0-2.34,0-3.5.26-4.44,3.17-7.46,7.58-7.66,3-.14,6,0,9,0H469.26a42,42,0,0,1,4.49.07,7.82,7.82,0,0,1,6.82,6.88,30,30,0,0,1,0,3q0,54.24,0,108.48a13.18,13.18,0,0,1-.71,5.35c-1.5,3.32-4.29,4.72-8.07,4.68-11.33-.12-22.66,0-34,0H292.36Zm171.91-64.15q0-22.22,0-44.44c0-3.75-.06-3.81-3.85-3.81q-32,0-63.92,0c-3.73,0-3.79.07-3.8,3.88q0,43.93,0,87.88c0,3.74.07,3.79,3.87,3.8q31.95,0,63.91,0c3.73,0,3.78-.06,3.79-3.87Q464.21,190.43,464.19,168.71Zm-88-.47v-28c0-5.67-.08-11.33,0-17,0-2.21-.83-2.84-2.93-2.82q-16.74.09-33.49,0c-2.26,0-3.39.48-3.25,3,.19,3.32.05,6.66.05,10,0,8,0,16,0,24,0,2-.6,3.11-2.83,3.05-3.66-.1-7.33-.05-11,0-1.52,0-2.6-.41-2.58-2.2,0-1.34,0-2.67,0-4,0-10,0-20,0-30,0-3.72-.06-3.77-3.89-3.78-7.66,0-15.33,0-23,0-4.91,0-4.69-.39-4.69,4.51v57.48c0,.83,0,1.66,0,2.49,0,1.47.72,2,2.14,2.11,3.64.27,7.27.68,10.92,1,9.27.75,18.55,1.41,27.82,2.22,5.29.47,10.58,1.05,15.83,1.81,4.9.71,7.18,3.48,7.26,8.49.06,3.83,0,7.66,0,11.5s.06,3.94,3.7,4q8,.06,16,0c3.81,0,3.88-.07,3.88-3.81Q376.23,190.23,376.19,168.24ZM239.48,235.78c-2.48-.16-4.11-.24-5.74-.38-6.12-.51-12.25-.94-18.36-1.59-3.56-.37-3.6-.55-5.08,3q-5.4,12.87-10.7,25.77c-5,12-9.87,24-14.86,35.92-2.12,5.08-5.47,7.09-10.41,6.67q-16.38-1.4-32.77-2.68c-9.44-.72-18.89-1.33-28.33-2-14.42-1-28.82-2.27-43.26-2.94-9.21-.43-7.15-1.72-10.09,7.06,0,.12.1.3.22.61a3.56,3.56,0,0,0,1.12.63Q80.62,309,100,312c15.89,2.46,31.8,4.84,47.69,7.3,14.58,2.27,29.14,4.62,43.72,6.91,4.11.65,4.15.62,5.87-2.94q14.64-30.31,29.25-60.63C230.73,254,234.89,245.3,239.48,235.78ZM35.47,197c15.68-1.21,50.05-9.13,80.08-21.09,23.29-9.27,66-32.62,72.43-39.95-13.18,3.57-25.72,7.32-38.44,10.3s-25.63,5.55-38.56,7.59a222.24,222.24,0,0,1-39.77,2.62c-13-.3-26-.66-40-1,3.62,3.55,6.74,6.31,9.49,9.4a9.22,9.22,0,0,0,7.87,3.21c7-.2,14,0,21-.08,2,0,3.09.6,3,2.83-.1,3.66-.07,7.33,0,11,0,1.95-.89,2.68-2.73,2.61-1.17,0-2.34,0-3.5,0H47.89c-1.68,0-3.24,0-4.4,1.64C41,189.63,38.41,193.05,35.47,197ZM448.39,300c-6-1.92-11.66-3.74-17.32-5.54l-135.81-43c-11.87-3.76-23.77-7.43-35.62-11.28-2.09-.68-3.29-.7-4.36,1.52-2.75,5.67-5.72,11.22-8.66,16.91a15.29,15.29,0,0,0,1.63.56q31.06,7,62.15,13.93,44.44,9.87,88.9,19.68c14.58,3.22,29.19,6.3,43.74,9.65C445.41,302.93,446.85,302.61,448.39,300ZM291.66,216h38.47a27.29,27.29,0,0,1,3,0c2.42.27,3.14-.77,3.15-3.14,0-5.18,0-5.23-5.1-5.52-5.3-.31-10.61-.72-15.9-1.22-8.92-.85-17.83-1.86-26.76-2.7-8.27-.77-16.55-1.35-24.82-2.14-4.92-.47-8-4.25-8.06-9.14,0-3.79-.25-7.59-.64-11.36-.81-7.76-1.85-15.49-2.68-23.24s-1.47-15.54-2.24-23.31c-.32-3.3-.59-6.62-1.17-9.88s-2.88-4.35-5.76-2.56c-4.1,2.53-8.05,5.32-12.2,7.78-2.5,1.48-2.76,3.46-2.19,5.94q8.81,38.3,17.61,76.6c.88,3.83.93,3.86,4.81,3.87Q271.43,216.06,291.66,216ZM56.92,106.45a13,13,0,0,0-.29,2.32A54.11,54.11,0,0,1,52.18,136c-1.21,2.66-.79,2.95,2.2,3.29,9.45,1.1,18.88.69,28.37.16a359.39,359.39,0,0,0,38.57-4.18c19.75-3.27,38.79-9.3,58.05-14.64C137.93,121.64,97.36,115.28,56.92,106.45Zm173.43,111.7c-3-13-5.78-25.11-8.57-37.26l-1,.06c-.83,12.25-3.89,24-7.92,35.75Z"/><path class="cls-1" d="M270.47,40.81c3.26,7.61,2.29,15.34,2,22.91C272,76,259.39,87.64,247.1,88.5c-16.4,1.15-27.8-9.86-30.31-21.93-.94-4.49-.42-9.27-.6-13.91-.37-9.18,3.47-16.44,10.3-22.24a25.61,25.61,0,0,1,16.9-6.37q20.48-.06,40.95,0c4.17,0,4.2.06,4.25,4,.05,3.16-.07,6.33,0,9.49.07,2.19-.89,2.93-3,2.88-3.82-.08-7.66,0-11.48,0C273,40.48,271.93,40.67,270.47,40.81Zm-14,15.71-.36-.05a44.6,44.6,0,0,0,0-4.48c-.64-6.33-5.21-11-11.15-11.48-5.41-.44-10.84,3.74-12,9.83a27,27,0,0,0,.55,13.75,11.86,11.86,0,0,0,11,7.9,11.59,11.59,0,0,0,10.59-7.72A56.83,56.83,0,0,0,256.52,56.52Z"/><path class="cls-1" d="M79.9,376.44c-6.83,0-13.65-.06-20.47,0-2.29,0-3.36-.66-3.27-3.12.15-3.49.12-7,0-10.48-.07-2.2.93-2.87,3-2.86q21.21.08,42.43,0c2.06,0,3.07.65,3,2.85-.1,3.5-.13,7,0,10.49.1,2.45-1,3.14-3.26,3.11C94.21,376.38,87.05,376.44,79.9,376.44Z"/><path class="cls-1" d="M108.34,16.44c-5.66,0-11.32-.07-17,0-2.36,0-3.29-.81-3.2-3.19.13-3.32.1-6.65,0-10C88.09,1.06,88.76,0,91.24,0c11.48.09,23,.07,34.44,0,2.12,0,3,.77,2.95,2.92-.1,3.49-.14,7,0,10.48.1,2.52-1.1,3.09-3.32,3C119.65,16.38,114,16.44,108.34,16.44Z"/><path class="cls-1" d="M428.3,352.44c-5.66,0-11.32-.08-17,0-2.4,0-3.26-.88-3.16-3.22.12-3,0-6,0-9,.06-4.13.08-4.2,4.08-4.22,9.15,0,18.3,0,27.45,0,2.16,0,4.33.06,6.49,0,1.69,0,2.38.77,2.37,2.42,0,3.82-.06,7.65,0,11.48,0,2-1.08,2.5-2.83,2.49C439.94,352.42,434.12,352.44,428.3,352.44Z"/><path class="cls-1" d="M448.41,88.43c-4.49,0-9,0-13.48,0-1.83,0-2.77-.63-2.73-2.59.06-3.82.05-7.65,0-11.48,0-1.72.85-2.33,2.46-2.33q13.72,0,27.45,0c1.62,0,2.48.62,2.46,2.34,0,3.82,0,7.65,0,11.48,0,1.94-.89,2.62-2.73,2.6-4.49,0-9,0-13.47,0Z"/><path class="cls-1" d="M160.4,248.43c-4.49,0-9,0-13.47,0-1.83,0-2.77-.62-2.74-2.58.07-3.83.05-7.65,0-11.48,0-1.71.83-2.34,2.45-2.34q13.72,0,27.45,0c1.61,0,2.49.59,2.48,2.32,0,3.82-.05,7.65,0,11.48,0,1.94-.88,2.62-2.72,2.6C169.39,248.4,164.9,248.43,160.4,248.43Z"/><path class="cls-1" d="M64.8.05c1.66,0,3.32,0,5,0s2.86.46,2.82,2.5c-.07,3.82,0,7.65,0,11.47,0,1.64-.66,2.44-2.36,2.43-3.82,0-7.64,0-11.47,0-1.54,0-2.55-.47-2.54-2.24,0-4,0-8,0-12,0-1.4.65-2.16,2.09-2.16H64.8Z"/><path class="cls-1" d="M129,239.89c-.38,2.72-.75,5.45-1.13,8.18-2.63.13-5.26.39-7.89.35-8.91-.1-7.6,1.3-7.74-7.53,0-2.16.06-4.32,0-6.48,0-1.69.79-2.37,2.43-2.36,3.82,0,7.64.06,11.46,0,2,0,2.56,1.06,2.5,2.82s0,3.32,0,5Z"/><path class="cls-1" d="M40.94,367.85q-.55,4.09-1.09,8.19c-2.63.14-5.26.29-7.89.4-1,0-2,0-3,0-4.71-.05-4.73-.05-4.77-4.53,0-3.16,0-6.31,0-9.47,0-1.67.72-2.41,2.39-2.4,3.83,0,7.65.05,11.47,0,2,0,2.59,1,2.53,2.78s0,3.32,0,5Z"/></g></g></svg>