<svg xmlns="http://www.w3.org/2000/svg" viewBox="0 0 416.17 512"><defs><style>.cls-1{fill:#b32179;}</style></defs><title>Asset 6</title><g id="Layer_2" data-name="Layer 2"><g id="Layer_1-2" data-name="Layer 1"><path class="cls-1" d="M415,435.59c-.36-.75-.79-1.46-1.19-2.19q-12.4-22.8-24.83-45.6l-27.93-51.3Q350.58,317.21,340,298a7.08,7.08,0,0,1-.44-6.5c2.79-7.7,8.05-13.32,14.29-18.2,7-5.43,14.24-10.54,19.93-17.35A60.14,60.14,0,0,0,382,243.48c4.37-9.1,3.89-18.74,1.51-28.3-1.84-7.42-4.19-14.71-5.86-22.15a40.65,40.65,0,0,1-1.09-12.31c.43-4.75,2-9.41,3.1-14.09,1.65-6.77,3.78-13.46,4.94-20.32a38.05,38.05,0,0,0-9-32.52c-6.25-7.26-13.79-13-21.29-18.82a45.67,45.67,0,0,1-16-21.74c-2.28-6.59-4.76-13.14-7.55-19.53-6.16-14.11-16.65-23.22-32.07-25.55A253.1,253.1,0,0,0,272.82,26c-8.51-.4-16.41-2.33-23.46-7.25-1.51-1.05-3.09-2-4.56-3.07C235.69,8.9,226.08,3.08,215,0H201c-11.31,3-20.94,9.12-30.32,15.79-1.36,1-2.77,1.85-4.13,2.81a40.85,40.85,0,0,1-22.88,7.45c-8.3.28-16.61.88-24.84,2-11.09,1.45-21,5.76-27.54,15.29A103.41,103.41,0,0,0,82.9,59.1c-2.34,5.14-4.09,10.54-6.07,15.84C74.09,82.28,70,88.61,63.47,93.18a80.67,80.67,0,0,0-7.88,6.13c-5.44,4.88-11.38,9.4-16,15-9.17,11.25-10.55,24.46-7.16,38.27q2.67,10.89,5.8,21.66a34.34,34.34,0,0,1,.13,19.17c-2,7.54-3.95,15.11-5.91,22.67a47,47,0,0,0-1.12,19.29c1.55,9.64,6.7,17.33,13.77,23.71,5.8,5.24,12,10.08,18,15.06,5.46,4.5,10.11,9.56,12.88,16.26a8.69,8.69,0,0,1-.34,8.36c-8.79,15.87-17.37,31.85-26.07,47.78S32,378.66,23.22,394.74C16,408,9,421.51,1.44,434.62c-3.87,6.69.47,14.67,8,13.54a20,20,0,0,1,3,0c27.49,0,55,.07,82.47-.08a8.54,8.54,0,0,1,7.81,3.95q20.2,27.3,40.78,54.33A61.21,61.21,0,0,0,149,512h6c2.69-1.57,4.34-4,5.78-6.69q16.22-29.81,32.44-59.62c4.76-8.75,9.59-17.47,14.76-26.87,2.64,4.73,5.07,9,7.42,13.28q19.8,36.38,39.58,72.78c1.52,2.8,3.18,5.45,6,7.12h6a63.89,63.89,0,0,0,5.5-5.67q20.78-27.48,41.36-55.1a6.84,6.84,0,0,1,6.2-3.14c20.65.12,41.31.08,62,.08,8.49,0,17,.09,25.48-.06C414.67,448,418.14,442,415,435.59ZM71.25,259.07c-5.13-4.25-10.25-8.5-15.33-12.8-7.72-6.53-9.47-14.93-7.27-24.39,1.54-6.63,3.2-13.24,5-19.8a65,65,0,0,0,0-35.91c-1.86-6.54-3.42-13.18-5.1-19.77-.21-.81-.33-1.63-.46-2.45-1.45-9.27,1-17.12,8.4-23.21,4.74-3.92,9.25-8.17,14.22-11.77,12.09-8.77,19.62-20.59,24.36-34.5,1.5-4.4,3.41-8.67,5-13,4.25-11.93,13.15-16.83,25.31-17.35,8.46-.36,16.92-1.08,25.35-1.9,8.78-.86,16.7-4.25,24.09-9,6.73-4.31,13.42-8.68,20.21-12.87,8-4.95,16.27-5.54,24.5-.56,6.12,3.7,12.23,7.45,18.11,11.51C249,39.1,261.56,42.6,275.19,43.16c7.45.31,14.91,1,22.32,2a19.09,19.09,0,0,1,15.76,11.6c3.14,7,6.17,14,8.73,21.21,4.62,13,12.8,23.15,23.53,31.57,5.62,4.42,11.08,9.07,16.24,14,4.32,4.14,7.2,9.21,6.86,15.72-1,4.87-1.95,9.75-3.06,14.59-1.57,6.79-3.49,13.5-4.86,20.33a53.78,53.78,0,0,0,.81,24.23c1.89,7.4,3.85,14.79,5.75,22.19.29,1.12.41,2.28.62,3.42,1.87,10.35-2.44,18.12-10.2,24.46-5.54,4.53-11,9.19-16.58,13.65-8.6,6.83-14.3,15.67-18.25,25.76-2,5.11-3.77,10.31-5.89,15.37a108.59,108.59,0,0,1-5.31,10.7,16,16,0,0,1-10.06,7.7,59.7,59.7,0,0,1-10.73,2.1c-6.79.61-13.62.78-20.43,1.19a62,62,0,0,0-29.53,9.71c-6.49,4.07-12.81,8.41-19.45,12.21a37.63,37.63,0,0,1-10.62,4,19.2,19.2,0,0,1-14-2.6c-6.29-3.74-12.56-7.54-18.63-11.63a67.85,67.85,0,0,0-37-11.87c-7.63-.21-15.26-1-22.84-1.92a19,19,0,0,1-15.5-11.2c-2.41-5.1-4.51-10.36-6.67-15.58-1.66-4-3.15-8.05-4.81-12C87.18,273.75,79.67,266,71.25,259.07ZM151,488.5c-1.87-2.33-3.34-4.07-4.7-5.89-11.3-15-22.68-30-33.79-45.21-2.84-3.88-6-5.68-10.86-5.65-24.5.16-49,.1-73.49.11H21.92C43.27,392.73,64.3,354.2,85.49,315.38c1.1,1.8,2.06,3.31,3,4.86,6.87,11.8,17.32,18.21,30.68,19.8,8.08,1,16.22,1.65,24.35,1.83a44.12,44.12,0,0,1,23.85,7.74c6.68,4.38,13.34,8.82,20.29,12.74,6.73,3.79,14,6.14,21.94,5.66,2.27-.14,4.53-.56,7.7-1C195,407.81,173.18,447.87,151,488.5Zm237-56.64c-24.48,0-49,.09-73.44-.08a12.18,12.18,0,0,0-10.93,5.46c-11.93,16.22-24.11,32.26-36.22,48.35-.59.78-1.32,1.46-2.48,2.72-4.26-7.74-8.21-14.86-12.1-22q-16-29.37-32-58.75c-.63-1.17-1.2-2.39-1.9-3.51a5,5,0,0,1,0-5.61c8-14.58,16-29.2,23.94-43.8a5.84,5.84,0,0,1,1.42-2c7.2-5.17,14.56-10,23.83-10.5,7-.36,14-.39,20.91-1.2a103.92,103.92,0,0,0,18-3.62c8.77-2.67,15.36-8.45,20-16.37,1-1.71,2-3.44,3.41-5.83,21.26,39,42.26,77.57,63.62,116.76Z"/><path class="cls-1" d="M204.21,288.26c64,2.19,117-52.88,116-112.21C321,116.24,269,64.38,209.32,63.67c-61-.72-113.4,51.68-113.63,111.78C95.46,235.06,145.62,286.26,204.21,288.26Zm2.37-207.92c55.18-.74,96.77,40.12,97.1,95.08.33,54.7-40.38,95.91-95,96.24-55,.34-95.78-40.74-96.54-95.84C113,122,152.47,81.05,206.58,80.34Z"/><path class="cls-1" d="M170,218.66a53.83,53.83,0,0,0,.9,9.41h70.35V211.49h-50c.9-20,48.4-25.84,48.4-59.9,0-20-16-31.37-34.51-31.37-17,0-29,9.86-35.1,21.21L184.38,151c3.88-6.87,11.05-12.55,19.12-12.55,9,0,16.13,5.53,16.13,14.79C219.63,174.29,170,180.42,170,218.66Z"/></g></g></svg>