<svg xmlns="http://www.w3.org/2000/svg" viewBox="0 0 383.81 512" fill="#b42079"><g><g><path class="cls-1" d="M180,0h24a18.22,18.22,0,0,0,2.82.85A94,94,0,0,1,288.06,93.5c.06,9.5,0,19,0,28.49,0,1.17.06,2.34,0,3.5,0,1.61.68,2.52,2.34,2.57,1.33,0,2.66.08,4,.08q15.74,0,31.49,0c13.83,0,27.66-.08,41.49,0,10.11.08,16.11,6.14,16.36,16.23,0,.83,0,1.66,0,2.5q0,142.47-.05,285a83.81,83.81,0,0,1-1.27,14.41C376,482.7,347.11,507.36,314.25,511a19,19,0,0,0-3.3,1H73a30,30,0,0,0-3.8-1,76.58,76.58,0,0,1-44.77-21.31C8.08,473.91.25,454.34.15,431.84,0,387.51.09,343.18.09,298.85.09,248,.22,197.2,0,146.37c0-11.31,6.15-18.83,18.48-18.28,6.65.3,13.33.06,20,.06q25.75,0,51.5,0c6.41,0,5.84-.13,5.84-5.64,0-8.16-.15-16.33.06-24.49.15-6.32.18-12.72,1.24-18.91C104,38.51,133,11.32,166.86,2.91,171.2,1.84,175.59,1,180,0ZM352.09,300.52v-39q0-48.24,0-96.49c0-5-.1-5.15-4.41-5.16q-27.75-.06-55.49,0c-4,0-4.05.13-4.07,4.37,0,9,.11,18-.09,27-.07,3,1.07,4.53,3.69,5.65a44.54,44.54,0,0,1,17.09,13.53c8.51,10.6,12.48,22.57,10.32,36.32s-9.27,24.19-20.22,32.09c-10.25,7.4-21.76,10.44-34.49,8.2a47.23,47.23,0,0,1-30-18.35c-10.15-13.13-13.18-27.83-7.53-43.77a47.93,47.93,0,0,1,24.65-27.63c3.36-1.68,4.49-3.63,4.37-7.28-.27-8-.09-16-.09-24,0-.84,0-1.67,0-2.5-.16-3.42-.22-3.48-3.83-3.65-1,0-2,0-3,0h-31.5c-13.66,0-27.32,0-41,0-6,0-11.18-2.07-14.26-7.58-5.11-9.17-1.2-23.63,13.49-24.11,1.16,0,2.33,0,3.5,0H218.7q15.75,0,31.49,0c5.6,0,5.61,0,5.62-5.35,0-8.83.13-17.67,0-26.5a70.53,70.53,0,0,0-1.23-12.4c-7.3-36.13-41.23-55.25-71.06-51.11-26.66,3.69-54.55,26.2-55.26,62-.64,32.15-.09,64.32-.21,96.48,0,3,1.11,4.52,3.72,5.64a44.58,44.58,0,0,1,17.07,13.54c8.51,10.6,12.48,22.57,10.31,36.32s-9.29,24.18-20.23,32.08c-10.26,7.4-21.77,10.44-34.5,8.19a47.3,47.3,0,0,1-30-18.37c-10.14-13.14-13.17-27.83-7.5-43.77C71.41,212.21,80,203.06,92,197c2.14-1.09,4-1.94,3.92-5-.19-9.49,0-19-.1-28.49,0-3.3-.24-3.41-3.34-3.62-1-.07-2,0-3,0q-25.24,0-50.49,0c-7.61,0-7.14-.48-7.14,7q0,132.48-.07,265c-.05,25.61,22.84,48.42,48.13,48.38q112.23-.21,224.46-.07a41.25,41.25,0,0,0,7.45-.62c24.75-4.6,40.79-27.57,40.48-49.51C351.67,386.84,352.09,343.68,352.09,300.52Zm-224-60.67c-.05-9.6-6.4-15.94-16-16-9.88,0-16.27,6.37-16.23,16.26,0,9.61,6.39,15.95,16,16C121.68,256.17,128.14,249.7,128.08,239.85Zm143.84-16c-9.84,0-16.18,6.47-16.09,16.4.09,9.57,6.5,15.86,16.15,15.85s16.2-6.53,16.1-16.41C288,230.15,281.57,223.87,271.92,223.88Z"/></g></g></svg>
