<svg xmlns="http://www.w3.org/2000/svg" viewBox="0 0 409 679.38" fill="#b42079"><g><g><path class="cls-1" d="M114.84,438.32h0a52.62,52.62,0,0,0,52.63-52.62V92.26a52.63,52.63,0,0,0-52.63-52.63h0A52.64,52.64,0,0,0,62.21,92.26V385.7A52.63,52.63,0,0,0,114.84,438.32ZM78.78,92.26a36.06,36.06,0,0,1,72.12,0V385.7a36.06,36.06,0,1,1-72.12,0Z"/><path class="cls-1" d="M252.64,126.66c12.74,3.07,23.38,12.52,34.87,18.42a81.36,81.36,0,0,0,36.18,9c17-.28,29.85-7.86,43.66-16.92,6.11-4,12.27-7.85,19.36-9.88,5.67-1.63,14.07-.12,18.91-3.51a7.56,7.56,0,0,0,.25-12.21c-4.17-3.16-12.35-1.45-17.07-.57-13.53,2.52-24.45,9.94-35.7,17.37s-23.77,12-37.53,9.62c-13.52-2.35-25-10.66-36.75-17.22-5.61-3.13-11.32-6.19-17.51-8-5.11-1.5-13.4-3.8-18.67-1.84-4.2,1.55-5.77,6.71-3.88,10.65C241.27,126.78,247.92,125.52,252.64,126.66Z"/><path class="cls-1" d="M391.94,196.56c-14.08,2.21-24.95,8.71-36.66,16.38s-22.65,12.84-36.85,11.35c-13.69-1.43-24.88-8.71-36.43-15.58-10.84-6.44-23.94-13.59-37.07-12-4.9.59-7.82,4.28-6.71,9.32,1.37,6.25,7.45,5.36,12.43,6.27,13.1,2.38,24.45,12.5,36.1,18.47,11.39,5.84,23.8,9.3,36.65,9.16,15.88.62,28.92-6.74,41.74-15.17,6.19-4.07,12.37-8.43,19.43-10.84a43.55,43.55,0,0,1,11-2c3-.23,6.44.09,9.2-1.4a7.72,7.72,0,0,0,1.94-12.14C403.06,194.56,396.54,195.83,391.94,196.56Z"/><path class="cls-1" d="M405.42,369.4c-4.47-2.81-13.27-.81-18.09.14-12.65,2.51-22.88,9.54-33.46,16.47-11.08,7.26-22.22,11.81-35.7,10.4S293,387.36,281.4,380.8c-10.48-5.93-24.11-14.56-36.89-12.21a7.65,7.65,0,0,0-6.27,9.78c1.48,5.65,6.82,5.28,11.52,5.95,13.26,1.89,24.73,12,36.26,18.2a82.15,82.15,0,0,0,36.84,9.78c17.07-.59,29.86-7.43,43.93-16.4,5.76-3.68,11.71-7.85,18.25-10a54.22,54.22,0,0,1,11.14-2.18c3.16-.34,7,.06,9.74-1.91A7.63,7.63,0,0,0,405.42,369.4Z"/><path class="cls-1" d="M394.11,282.35c-13.45,1.6-24.46,7.22-35.63,14.52-11.38,7.43-22.21,14.32-36.35,13.87-27.72-.9-46.49-26.72-74.08-28.19-5.33,0-10.34,2-10,8.2.36,7.05,6.6,6.77,11.95,7.59,14.91,2.29,28,13.81,41.2,20.52a70.15,70.15,0,0,0,38.85,7c13.5-1.41,24.19-7.79,35.25-15.15,5.67-3.78,11.41-7.71,17.82-10.15,6.08-2.31,12.23-2,18.48-3.2,5.15-1,9.43-5.94,6.43-11.25C405.17,281.06,399,281.77,394.11,282.35Z"/><path class="cls-1" d="M101.85,648.68h26a8.29,8.29,0,0,0,0-16.57h-26a8.29,8.29,0,1,0,0,16.57Z"/><path class="cls-1" d="M221.4,662.81H187.29V444.73a93.06,93.06,0,0,0,21.11-59V93.56C208.4,42.1,166.3,0,114.84,0h0C63.38,0,21.28,42.1,21.28,93.56V385.7a93.06,93.06,0,0,0,21.12,59V662.81H8.28a8.29,8.29,0,0,0,0,16.57H221.4a8.29,8.29,0,0,0,0-16.57ZM37.85,385.7V93.56a77,77,0,0,1,154,0V385.7a77,77,0,0,1-154,0ZM170.72,662.81H59v-97.3H170.72Zm0-113.87H59V460.62a93,93,0,0,0,55.88,18.64h0a93,93,0,0,0,55.88-18.64Z"/></g></g></svg>
