<svg xmlns="http://www.w3.org/2000/svg" viewBox="0 0 430.59 406.75"><defs><style>.cls-1{fill:#b32179;}</style></defs><title>wallet</title><g id="Layer_2" data-name="Layer 2"><g id="Layer_1-2" data-name="Layer 1"><path class="cls-1" d="M189.81,406.61c-63.83,0-77.65-.22-141.48.14a49,49,0,0,1-48-41.17,33.45,33.45,0,0,1-.21-5.49c0-75.33.14-150.65-.1-226C-.06,114,14.06,92.46,37.24,87.59c17.91-3.76,207-69.34,245.64-79.85,8.48-2.3,16.93-4.84,25.53-6.64,27.31-5.72,51.17,11.55,57,36.14a45.43,45.43,0,0,1,1.08,9.87c.13,11.67,0,23.33.06,35,0,4,.06,4,4.11,4.08s8.33.1,12.5,0c19.13-.47,40.6,13.35,46.23,37a48.18,48.18,0,0,1,1.1,10.86c.06,75-.07,150,.13,225,.05,19.44-13.75,41.12-37.42,46.44a50.17,50.17,0,0,1-10.87,1.07Q286,406.66,189.81,406.61Zm.37-32.41h94c31.82,0,63.65.05,95.48-.09a24.16,24.16,0,0,0,9.63-1.94c6.27-2.83,8.66-8.45,8.79-15s.06-13.33,0-20c0-6.21.73-5.51-5.67-5.51q-68.73,0-137.47-.06a54,54,0,0,1-11.37-1.08c-22-4.8-37.42-24.87-37.47-45.32,0-22.5-.12-45,0-67.49.1-14.35,6.24-26,17-35.25,9.06-7.74,19.64-11.38,31.68-11.33,40,.15,80,.06,120,.06,6.66,0,13.33-.06,20,0,2.17,0,3.37-.33,3.34-3-.12-11.16.12-22.33-.14-33.49-.15-6.19-2.89-11.24-8.66-14.17-3.34-1.69-7-2-10.67-2-125.31,0-200.61.1-325.92-.09-13.32,0-20.41,6.9-20.36,20.42q.36,107.48,0,215c0,13.3,6.8,20.49,20.33,20.44C115.2,374.06,127.69,374.2,190.18,374.2ZM324.76,203.61q-34.25,0-68.48,0c-11.14,0-17.65,6.51-17.77,17.68,0,5.16,0,10.33,0,15.49,0,15-.08,30,0,45,.07,10.57,6.55,17,17.13,17.37,1.67.05,3.33,0,5,0h82c16.49,0,33,0,49.48,0,6.87,0,5.87.92,6-6.21,0-2.5,0-5,0-7.5q0-38.73,0-77.47c0-4.56.22-4.34-4.37-4.33h-69ZM113.31,91.2c.66,0,147.66-5,216-5,.83,0,1.67-.06,2.5,0,1.76.13,2.3-.76,2.3-2.4,0-11.83.33-23.68-.13-35.49-.43-11.24-9.53-17.54-20.47-14.78C307.38,35.07,113.3,91,113.31,91.2Z"/><path class="cls-1" d="M302.5,246.43c.81,8.6-8.21,16.31-16,16.36-9,.06-16.6-8.36-16.61-16.4,0-8.61,8.41-16.31,16.15-16.36C295.06,230,303.32,238.38,302.5,246.43Z"/></g></g></svg>